<svg xmlns="http://www.w3.org/2000/svg" width="800" height="480" viewBox="0 0 800 480" role="img" aria-label="五节点加权路线图">
<rect width="800" height="480" fill="white"/><g stroke="#444" stroke-width="4"><path d="M100 240L320 100L680 240 M100 240L320 380L680 240 M320 100V380 M320 380L510 380L680 240" fill="none"/></g>
<g font-family="sans-serif" font-size="27" text-anchor="middle"><g fill="white" stroke="#222" stroke-width="3"><circle cx="100" cy="240" r="34"/><circle cx="320" cy="100" r="34"/><circle cx="320" cy="380" r="34"/><circle cx="510" cy="380" r="34"/><circle cx="680" cy="240" r="34"/></g><g fill="#111"><text x="100" y="250">S</text><text x="320" y="110">A</text><text x="320" y="390">B</text><text x="510" y="390">C</text><text x="680" y="250">T</text></g><g fill="#a02020" stroke="white" stroke-width="8" paint-order="stroke"><text x="190" y="160">4</text><text x="190" y="340">2</text><text x="500" y="155">5</text><text x="305" y="250">1</text><text x="500" y="305">8</text><text x="415" y="365">3</text><text x="615" y="340">2</text></g></g>
</svg>
